<svg id="_1" data-name=" 1" xmlns="http://www.w3.org/2000/svg" viewBox="0 0 997.58 331.55"><defs><style>.cls-1,.cls-3{fill:#9ea1a2;}.cls-1,.cls-2{fill-rule:evenodd;}.cls-2{fill:#c10230;}</style></defs><title>LOGO_BIASI_color_1000x350px</title><polygon class="cls-1" points="749.82 246.17 674.84 48.18 630.32 48.18 555.34 246.17 599.86 246.17 612.75 207.51 652.58 97.38 678.36 170.02 638.52 170.02 626.81 202.82 688.9 202.82 704.13 246.17 749.82 246.17"/><path class="cls-2" d="M265.43,247.74V176.12a40.65,40.65,0,0,0-1-4.72c-2.35-8.22-9-17.87-9.57-18.56-7-8.17-14-12.33-15.23-12.88A50.87,50.87,0,0,0,229,135.69c-.86-.21-3-.6-3.67-.72a55,55,0,0,0-6.49-.58H209.2s0-5,0-5.19a53.22,53.22,0,0,0-5.82-17.36,65,65,0,0,0-4.68-7,70.74,70.74,0,0,0-5.31-5.51A76.67,76.67,0,0,0,184.7,93a43.88,43.88,0,0,0-18.1-5.79H141.24v41.06h21.09a9.25,9.25,0,0,1,2.92,1.08,6.56,6.56,0,0,1,2.15,1.92,4.1,4.1,0,0,1,.7,2.7l.09,42.34h51.55a5.24,5.24,0,0,1,3.51,2.34,9.56,9.56,0,0,1,1,1.74,3.82,3.82,0,0,1,.21,1.26v25.12H73.29l68-119.42V6.4L.65,247.74Z" transform="translate(-0.65 -6.4)"/><path class="cls-3" d="M437,144.79c18.56-8,30.71-28.22,25.73-52.78-5.31-21.81-21-30.11-30.78-33.47s-41.32-4-41.32-4H307v34h90c24.29,2,24.32,19.86,24.32,19.86,3.86,24.91-26.66,27-26.66,27H351.3V99.1H307l.12,30.06L307,252.57H417.08s56.14-2.68,56.11-56C473.17,153.87,437,144.79,437,144.79Zm-37.25,73.78H351.26V164.71h51.1c27.16,2.3,27.19,22.82,27.19,22.82C433.87,216.17,399.74,218.57,399.74,218.57Z" transform="translate(-0.65 -6.4)"/><rect class="cls-3" x="494.83" y="48.18" width="43.56" height="197.99"/><rect class="cls-3" x="954.02" y="48.18" width="43.56" height="197.99"/><path class="cls-1" d="M755.16,191.38s1.33,18,4.42,28.17,17.35,29.18,44.65,37.7c20.25,6.33,46.43,4.72,60.66,2.28,5-.85,15-4.58,19.54-6.48a65.16,65.16,0,0,0,31.34-26.75c15-24.29,6.44-63.24-19.79-73.67-17.32-6.9-70.22-21.77-70.22-21.77S798,125,804.55,104.66c6.64-23.26,44.34-15.21,44.34-15.21s23,2.86,23.43,29.29h42.17s.57-15.85-5.85-29.29-22.59-25.64-39.73-30.63-38.13-6.3-63.18,0c-12.42,3.13-22.35,11.55-29.2,19.24s-13.35,22.1-13.89,32.15c-.7,12.88,2,30.46,17.86,43.57,0,0,24,15.18,42.7,17.78,0,0,22.36,5.44,31.28,8.05,6.22,1.81,16.31,6.21,19.09,9.24,6.18,6.71,11.81,19.84-5.23,33.3,0,0-18.55,12.17-51.88,1.66,0,0-18.84-5.85-19.12-32.43Z" transform="translate(-0.65 -6.4)"/><path class="cls-3" d="M316.14,290.1a13,13,0,0,1,5.69-1.31,13.65,13.65,0,0,1,10.41,4.38c2.62,2.95,3.93,7.27,3.93,13,0,5.37-1.31,9.88-3.93,13.48a12.86,12.86,0,0,1-10.86,5.37,11.25,11.25,0,0,1-6.62-1.9,15.32,15.32,0,0,1-3.4-3.6v4.39h-5.3V276.81h5.56V293.9A12.55,12.55,0,0,1,316.14,290.1Zm14.14,16.36a15.85,15.85,0,0,0-2.29-9,7.7,7.7,0,0,0-6.81-3.54,9.47,9.47,0,0,0-6.87,2.88c-2,2-3,5.17-3,9.62a21.86,21.86,0,0,0,1.24,7.86A8.39,8.39,0,0,0,321,320a7.78,7.78,0,0,0,7-3.74C329.56,313.79,330.28,310.52,330.28,306.46Z" transform="translate(-0.65 -6.4)"/><path class="cls-3" d="M369.41,295.07a15.87,15.87,0,0,1,2.3,6,41.58,41.58,0,0,1,.52,7.59H347.1a14.91,14.91,0,0,0,2.48,8.31c1.51,2.1,3.93,3.14,7.14,3.14a9.35,9.35,0,0,0,7.2-2.94,10.48,10.48,0,0,0,2.16-4h5.63a11.57,11.57,0,0,1-1.44,4.18,14.2,14.2,0,0,1-9.36,7.27,20.1,20.1,0,0,1-4.65.52,14.39,14.39,0,0,1-10.87-4.71c-2.94-3.08-4.45-7.4-4.45-13s1.51-10,4.52-13.42a14.68,14.68,0,0,1,11.65-5.17,16.09,16.09,0,0,1,7.07,1.7A13.08,13.08,0,0,1,369.41,295.07Zm-4.77,3c-1.51-2.75-4.19-4.13-7.86-4.13a9,9,0,0,0-6.67,2.82,10.94,10.94,0,0,0-2.82,7.33h19A13.66,13.66,0,0,0,364.64,298.09Z" transform="translate(-0.65 -6.4)"/><path class="cls-3" d="M389.9,290.23a13.79,13.79,0,0,1,6-1.31q7.26,0,9.82,5.11a18.37,18.37,0,0,1,1.44,8v21.93h-5.89v-21.6a12.37,12.37,0,0,0-.92-5c-1-2.09-2.88-3.21-5.56-3.21a9.46,9.46,0,0,0-3.34.46,8.75,8.75,0,0,0-4.19,2.81,9.34,9.34,0,0,0-1.83,3.47A25.62,25.62,0,0,0,385,306v17.94h-5.76V289.71h5.5v4.84A16.46,16.46,0,0,1,389.9,290.23Z" transform="translate(-0.65 -6.4)"/><path class="cls-3" d="M442.19,295.07a15.86,15.86,0,0,1,2.29,6,40.48,40.48,0,0,1,.53,7.59H419.87a14.83,14.83,0,0,0,2.49,8.31c1.5,2.1,3.93,3.14,7.13,3.14a9.33,9.33,0,0,0,7.2-2.94,10.22,10.22,0,0,0,2.16-4h5.63a11.38,11.38,0,0,1-1.44,4.18,13.34,13.34,0,0,1-2.88,3.8,13.57,13.57,0,0,1-6.48,3.47,20,20,0,0,1-4.64.52,14.39,14.39,0,0,1-10.87-4.71c-2.95-3.08-4.45-7.4-4.45-13s1.5-10,4.52-13.42a14.67,14.67,0,0,1,11.65-5.17,16,16,0,0,1,7.06,1.7A13.11,13.11,0,0,1,442.19,295.07Zm-4.78,3c-1.5-2.75-4.19-4.13-7.85-4.13a9,9,0,0,0-6.68,2.82,10.93,10.93,0,0,0-2.81,7.33h19A13.66,13.66,0,0,0,437.41,298.09Z" transform="translate(-0.65 -6.4)"/><path class="cls-3" d="M456.91,317.59c1.44,1.9,3.93,2.81,7.53,2.81a11.21,11.21,0,0,0,5.63-1.44,4.46,4.46,0,0,0,2.42-4.25,3.56,3.56,0,0,0-2-3.34,18.49,18.49,0,0,0-4.91-1.63L461,308.56a21.55,21.55,0,0,1-6.42-2.43,7.31,7.31,0,0,1-3.73-6.47,9.89,9.89,0,0,1,3.54-7.86,14,14,0,0,1,9.36-3c5.17,0,8.9,1.51,11.19,4.58a9.56,9.56,0,0,1,2,6.15h-5.43A6.4,6.4,0,0,0,470.2,296c-1.31-1.51-3.6-2.23-6.87-2.23a8,8,0,0,0-4.91,1.25,3.84,3.84,0,0,0-1.7,3.27,4,4,0,0,0,2.22,3.6,13.07,13.07,0,0,0,3.8,1.37l3.8.92a29.58,29.58,0,0,1,8.31,2.95c2.22,1.44,3.34,3.73,3.34,6.94a10.53,10.53,0,0,1-3.47,7.85c-2.36,2.23-5.83,3.34-10.54,3.34-5.11,0-8.71-1.18-10.87-3.47a13.48,13.48,0,0,1-3.4-8.57h5.56A7.49,7.49,0,0,0,456.91,317.59Z" transform="translate(-0.65 -6.4)"/><path class="cls-3" d="M489.64,317.59c1.44,1.9,3.93,2.81,7.53,2.81a11.17,11.17,0,0,0,5.62-1.44,4.47,4.47,0,0,0,2.43-4.25,3.57,3.57,0,0,0-2-3.34,18.49,18.49,0,0,0-4.91-1.63l-4.58-1.18a21.36,21.36,0,0,1-6.41-2.43,7.29,7.29,0,0,1-3.73-6.47,9.88,9.88,0,0,1,3.53-7.86,14,14,0,0,1,9.36-3c5.17,0,8.9,1.51,11.19,4.58a9.5,9.5,0,0,1,2,6.15H504.3a6.33,6.33,0,0,0-1.38-3.53c-1.3-1.51-3.6-2.23-6.87-2.23a8,8,0,0,0-4.91,1.25,3.84,3.84,0,0,0-1.7,3.27,4,4,0,0,0,2.23,3.6,13,13,0,0,0,3.79,1.37l3.8.92a29.58,29.58,0,0,1,8.31,2.95c2.23,1.44,3.34,3.73,3.34,6.94a10.53,10.53,0,0,1-3.47,7.85c-2.35,2.23-5.82,3.34-10.54,3.34-5.1,0-8.7-1.18-10.86-3.47a13.43,13.43,0,0,1-3.41-8.57h5.57A7.42,7.42,0,0,0,489.64,317.59Z" transform="translate(-0.65 -6.4)"/><path class="cls-3" d="M544,295.07a16,16,0,0,1,2.29,6,41.58,41.58,0,0,1,.52,7.59H521.71a14.91,14.91,0,0,0,2.48,8.31c1.51,2.1,3.93,3.14,7.14,3.14a9.33,9.33,0,0,0,7.2-2.94,10.48,10.48,0,0,0,2.16-4h5.63a11.38,11.38,0,0,1-1.44,4.18,14.2,14.2,0,0,1-9.36,7.27,20.1,20.1,0,0,1-4.65.52A14.37,14.37,0,0,1,520,320.47c-3-3.08-4.46-7.4-4.46-13s1.51-10,4.52-13.42a14.7,14.7,0,0,1,11.65-5.17,16.09,16.09,0,0,1,7.07,1.7A13.18,13.18,0,0,1,544,295.07Zm-4.78,3c-1.51-2.75-4.19-4.13-7.86-4.13a9,9,0,0,0-6.67,2.82,10.94,10.94,0,0,0-2.82,7.33h19A13.66,13.66,0,0,0,539.25,298.09Z" transform="translate(-0.65 -6.4)"/><path class="cls-3" d="M562.81,291.41a8.55,8.55,0,0,1,6-2.49,2,2,0,0,1,.52.07l1.31.13v6.09a4.1,4.1,0,0,0-.91-.14,4.81,4.81,0,0,0-1-.06,8.16,8.16,0,0,0-6.67,2.81,9.88,9.88,0,0,0-2.29,6.42v19.7H554V289.71h5.43v5.89A13.41,13.41,0,0,1,562.81,291.41Z" transform="translate(-0.65 -6.4)"/><path class="cls-3" d="M602.21,295.07a15.86,15.86,0,0,1,2.29,6,41.58,41.58,0,0,1,.52,7.59H579.89a14.91,14.91,0,0,0,2.48,8.31c1.51,2.1,3.93,3.14,7.14,3.14a9.33,9.33,0,0,0,7.2-2.94,10.35,10.35,0,0,0,2.16-4h5.63a11.38,11.38,0,0,1-1.44,4.18,14.2,14.2,0,0,1-9.36,7.27,20.1,20.1,0,0,1-4.65.52,14.37,14.37,0,0,1-10.86-4.71c-3-3.08-4.45-7.4-4.45-13s1.5-10,4.51-13.42a14.7,14.7,0,0,1,11.65-5.17,16.09,16.09,0,0,1,7.07,1.7A13.18,13.18,0,0,1,602.21,295.07Zm-4.78,3c-1.51-2.75-4.19-4.13-7.85-4.13a9,9,0,0,0-6.68,2.82,10.94,10.94,0,0,0-2.82,7.33h19A13.66,13.66,0,0,0,597.43,298.09Z" transform="translate(-0.65 -6.4)"/><path class="cls-3" d="M639.64,290.89a11.15,11.15,0,0,1,6.48-2,10.28,10.28,0,0,1,6.55,2,10.46,10.46,0,0,1,2.55,3.4,13.39,13.39,0,0,1,4.52-4.12,13.1,13.1,0,0,1,5.82-1.31c4.58,0,7.72,1.7,9.43,5a16.68,16.68,0,0,1,1.31,7.2v22.78h-6V300.18c0-2.29-.59-3.86-1.7-4.71a7,7,0,0,0-4.19-1.31,8.27,8.27,0,0,0-5.83,2.29c-1.63,1.5-2.48,4.06-2.48,7.59v19.9h-5.83V301.62a11,11,0,0,0-.85-5.11c-.85-1.57-2.49-2.42-4.84-2.42a8.35,8.35,0,0,0-6,2.55c-1.77,1.71-2.68,4.72-2.68,9.17v18.13h-5.76V289.71h5.69v4.84A19,19,0,0,1,639.64,290.89Z" transform="translate(-0.65 -6.4)"/><path class="cls-3" d="M705.74,301.55a5,5,0,0,0,.4-2.22,4.66,4.66,0,0,0-2.1-4.26,10.92,10.92,0,0,0-6-1.31c-3,0-5.17.79-6.41,2.43a7.46,7.46,0,0,0-1.37,4h-5.37q.09-6.37,4.12-8.84a16.9,16.9,0,0,1,9.17-2.48,18.09,18.09,0,0,1,9.75,2.35,7.71,7.71,0,0,1,3.79,7.14v19.7a2.89,2.89,0,0,0,.33,1.44c.26.39.79.52,1.57.52a4.35,4.35,0,0,0,.85-.06c.33,0,.66-.07,1-.07v4.19a15.51,15.51,0,0,1-2.09.52,14.53,14.53,0,0,1-1.9.07,4.83,4.83,0,0,1-4.32-2.1,7.9,7.9,0,0,1-1-3.14,14.48,14.48,0,0,1-5,4,15.77,15.77,0,0,1-7.27,1.71,10.76,10.76,0,0,1-7.79-2.95,9.69,9.69,0,0,1-3-7.2,9.33,9.33,0,0,1,3-7.39,14,14,0,0,1,7.85-3.21l9.16-1.18A3,3,0,0,0,705.74,301.55Zm-10.4,18.66a12.38,12.38,0,0,0,5.82-1.44,7.89,7.89,0,0,0,4.84-7.6v-4.64a8.8,8.8,0,0,1-2.74,1.11,30.13,30.13,0,0,1-3.28.65l-3.47.46a12.25,12.25,0,0,0-4.71,1.31,5.13,5.13,0,0,0-2.62,4.78,4.71,4.71,0,0,0,1.84,3.93A6.48,6.48,0,0,0,695.34,320.21Z" transform="translate(-0.65 -6.4)"/><path class="cls-3" d="M743.51,294.09V276.81h5.56v47.13H743.9v-4.78a12.74,12.74,0,0,1-4.78,4.58,13.83,13.83,0,0,1-6.28,1.44,12.9,12.9,0,0,1-10-4.84c-2.75-3.21-4.19-7.46-4.19-12.76a22.21,22.21,0,0,1,3.86-13,12.53,12.53,0,0,1,10.87-5.43,12.28,12.28,0,0,1,6.61,1.63A16.33,16.33,0,0,1,743.51,294.09Zm-8.91,26.05a8,8,0,0,0,6.61-3.47c1.64-2.29,2.56-5.56,2.56-9.81s-.92-7.53-2.69-9.63a8.2,8.2,0,0,0-6.54-3.14,8.7,8.7,0,0,0-7,3.34q-2.76,3.35-2.75,9.82a16.58,16.58,0,0,0,2.35,9.16Q729.5,320.15,734.6,320.14Z" transform="translate(-0.65 -6.4)"/><path class="cls-3" d="M784.08,295.07a15.7,15.7,0,0,1,2.29,6,40.48,40.48,0,0,1,.53,7.59H761.76a14.83,14.83,0,0,0,2.49,8.31c1.51,2.1,3.93,3.14,7.13,3.14a9.35,9.35,0,0,0,7.21-2.94,10.48,10.48,0,0,0,2.16-4h5.62a11.2,11.2,0,0,1-1.44,4.18,13.34,13.34,0,0,1-2.88,3.8,13.57,13.57,0,0,1-6.48,3.47,20,20,0,0,1-4.64.52,14.39,14.39,0,0,1-10.87-4.71c-2.94-3.08-4.45-7.4-4.45-13s1.51-10,4.52-13.42a14.67,14.67,0,0,1,11.65-5.17,16.09,16.09,0,0,1,7.07,1.7A13.14,13.14,0,0,1,784.08,295.07Zm-4.78,3c-1.5-2.75-4.18-4.13-7.85-4.13a9,9,0,0,0-6.68,2.82,10.93,10.93,0,0,0-2.81,7.33h19A13.52,13.52,0,0,0,779.3,298.09Z" transform="translate(-0.65 -6.4)"/><path class="cls-3" d="M812.09,283.49V277H818v6.48Zm0,40.45v-34.1H818v34.1Z" transform="translate(-0.65 -6.4)"/><path class="cls-3" d="M837.29,290.23a13.79,13.79,0,0,1,6-1.31q7.28,0,9.82,5.11a18.22,18.22,0,0,1,1.44,8v21.93h-5.89v-21.6a12.37,12.37,0,0,0-.92-5c-1-2.09-2.88-3.21-5.56-3.21a9.46,9.46,0,0,0-3.34.46,8.75,8.75,0,0,0-4.19,2.81,9.34,9.34,0,0,0-1.83,3.47,25.62,25.62,0,0,0-.46,5.17v17.94h-5.76V289.71h5.5v4.84A16.46,16.46,0,0,1,837.29,290.23Z" transform="translate(-0.65 -6.4)"/><path class="cls-3" d="M883.43,323.94V277h6.41v46.93Z" transform="translate(-0.65 -6.4)"/><path class="cls-3" d="M911.83,289.71v4.71H906.4v22.32a2.53,2.53,0,0,0,1.18,2.42,6.18,6.18,0,0,0,2.29.33h.85c.33,0,.72-.07,1.11-.07v4.52a9.51,9.51,0,0,1-2,.39,13.6,13.6,0,0,1-2.36.13c-2.68,0-4.45-.65-5.43-2a8.9,8.9,0,0,1-1.44-5.36V294.42h-4.65v-4.71h4.65v-9.56h5.82v9.56Z" transform="translate(-0.65 -6.4)"/><path class="cls-3" d="M938.6,301.55a4.86,4.86,0,0,0,.4-2.22,4.66,4.66,0,0,0-2.1-4.26,10.9,10.9,0,0,0-5.95-1.31c-3,0-5.18.79-6.42,2.43a7.46,7.46,0,0,0-1.37,4h-5.37q.09-6.37,4.12-8.84a16.9,16.9,0,0,1,9.17-2.48,18.09,18.09,0,0,1,9.75,2.35,7.72,7.72,0,0,1,3.8,7.14v19.7a3,3,0,0,0,.32,1.44c.26.39.79.52,1.57.52a4.45,4.45,0,0,0,.86-.06c.32,0,.65-.07,1-.07v4.19a15.15,15.15,0,0,1-2.09.52,14.53,14.53,0,0,1-1.9.07,4.84,4.84,0,0,1-4.32-2.1,7.9,7.9,0,0,1-1-3.14,14.48,14.48,0,0,1-5,4,15.77,15.77,0,0,1-7.27,1.71,10.76,10.76,0,0,1-7.79-2.95,9.69,9.69,0,0,1-3-7.2,9.33,9.33,0,0,1,3-7.39,14,14,0,0,1,7.85-3.21l9.17-1.18A3,3,0,0,0,938.6,301.55Zm-10.4,18.66a12.38,12.38,0,0,0,5.82-1.44,7.9,7.9,0,0,0,4.85-7.6v-4.64a8.86,8.86,0,0,1-2.75,1.11,30.13,30.13,0,0,1-3.28.65l-3.46.46a12.25,12.25,0,0,0-4.72,1.31,5.13,5.13,0,0,0-2.62,4.78,4.71,4.71,0,0,0,1.84,3.93A6.5,6.5,0,0,0,928.2,320.21Z" transform="translate(-0.65 -6.4)"/><path class="cls-3" d="M954.18,323.94V277h5.76v46.93Z" transform="translate(-0.65 -6.4)"/><path class="cls-3" d="M990.9,304.76c-2.1,5.83-3.87,10.67-5.24,14.34-3.34,8.77-5.69,14.07-7.07,16s-3.66,2.88-7,2.88a13,13,0,0,1-1.84-.07c-.45-.06-1-.2-1.63-.33v-5.3a12.38,12.38,0,0,0,2.16.53,10.28,10.28,0,0,0,1.18.13,3.62,3.62,0,0,0,3.59-1.84c.14-.19.46-1,1.18-2.62l1.44-3.53L965,289.71h6.55l9.16,27.88,9.23-27.88h6.35C995.48,291.93,993.64,296.91,990.9,304.76Z" transform="translate(-0.65 -6.4)"/></svg>